<?xml version="1.0" encoding="UTF-8" standalone="no"?>
<!-- Created with Inkscape (http://www.inkscape.org/) -->

<svg
   version="1.1"
   id="svg1"
   width="820"
   height="590"
   viewBox="219.9 99.8 819.7 589.6"
   sodipodi:docname="CONCHA AMARELA - PÉROLA BRANCA.svg"
   inkscape:export-filename="LOGO VERTICAL BRANCO (fundo cinza).png"
   inkscape:export-xdpi="96"
   inkscape:export-ydpi="96"
   inkscape:version="1.4.2 (f4327f4, 2025-05-13)"
   xmlns:inkscape="http://www.inkscape.org/namespaces/inkscape"
   xmlns:sodipodi="http://sodipodi.sourceforge.net/DTD/sodipodi-0.dtd"
   xmlns="http://www.w3.org/2000/svg"
   xmlns:svg="http://www.w3.org/2000/svg">
  <defs
     id="defs1">
    <clipPath
       clipPathUnits="userSpaceOnUse"
       id="clipPath1">
      <path
         d="M 0,0 H 842 V 596 H 0 Z"
         id="path1" />
    </clipPath>
    <clipPath
       clipPathUnits="userSpaceOnUse"
       id="clipPath3">
      <path
         d="M 0,0 H 842 V 596 H 0 Z"
         id="path3" />
    </clipPath>
    <clipPath
       clipPathUnits="userSpaceOnUse"
       id="clipPath5">
      <path
         d="M 0,0 H 842 V 596 H 0 Z"
         id="path5" />
    </clipPath>
    <clipPath
       clipPathUnits="userSpaceOnUse"
       id="clipPath7">
      <path
         d="M 0,0 H 842 V 596 H 0 Z"
         id="path7" />
    </clipPath>
    <clipPath
       clipPathUnits="userSpaceOnUse"
       id="clipPath9">
      <path
         d="M 0,0 H 842 V 596 H 0 Z"
         id="path9" />
    </clipPath>
    <clipPath
       clipPathUnits="userSpaceOnUse"
       id="clipPath11">
      <path
         d="M 0,0 H 842 V 596 H 0 Z"
         id="path11" />
    </clipPath>
    <clipPath
       clipPathUnits="userSpaceOnUse"
       id="clipPath13">
      <path
         d="M 0,0 H 842 V 596 H 0 Z"
         id="path13" />
    </clipPath>
    <clipPath
       clipPathUnits="userSpaceOnUse"
       id="clipPath15">
      <path
         d="M 0,0 H 842 V 596 H 0 Z"
         id="path15" />
    </clipPath>
    <clipPath
       clipPathUnits="userSpaceOnUse"
       id="clipPath17">
      <path
         d="M 0,0 H 842 V 596 H 0 Z"
         id="path17" />
    </clipPath>
    <clipPath
       clipPathUnits="userSpaceOnUse"
       id="clipPath19">
      <path
         d="M 0,0 H 842 V 596 H 0 Z"
         id="path19" />
    </clipPath>
    <clipPath
       clipPathUnits="userSpaceOnUse"
       id="clipPath21">
      <path
         d="M 0,0 H 842 V 596 H 0 Z"
         id="path21" />
    </clipPath>
    <clipPath
       clipPathUnits="userSpaceOnUse"
       id="clipPath23">
      <path
         d="M 0,0 H 842 V 596 H 0 Z"
         id="path23" />
    </clipPath>
    <clipPath
       clipPathUnits="userSpaceOnUse"
       id="clipPath25">
      <path
         d="M 0,0 H 842 V 596 H 0 Z"
         id="path25" />
    </clipPath>
    <clipPath
       clipPathUnits="userSpaceOnUse"
       id="clipPath27">
      <path
         d="M 0,0 H 842 V 596 H 0 Z"
         id="path27" />
    </clipPath>
    <clipPath
       clipPathUnits="userSpaceOnUse"
       id="clipPath29">
      <path
         d="M 0,0 H 842 V 596 H 0 Z"
         id="path29" />
    </clipPath>
    <clipPath
       clipPathUnits="userSpaceOnUse"
       id="clipPath31">
      <path
         d="M 0,0 H 842 V 596 H 0 Z"
         id="path31" />
    </clipPath>
    <clipPath
       clipPathUnits="userSpaceOnUse"
       id="clipPath33">
      <path
         d="M 0,0 H 842 V 596 H 0 Z"
         id="path33" />
    </clipPath>
    <clipPath
       clipPathUnits="userSpaceOnUse"
       id="clipPath35">
      <path
         d="M 0,0 H 842 V 596 H 0 Z"
         id="path35" />
    </clipPath>
    <clipPath
       clipPathUnits="userSpaceOnUse"
       id="clipPath37">
      <path
         d="M 0,0 H 842 V 596 H 0 Z"
         id="path37" />
    </clipPath>
    <clipPath
       clipPathUnits="userSpaceOnUse"
       id="clipPath39">
      <path
         d="M 0,0 H 842 V 596 H 0 Z"
         id="path39" />
    </clipPath>
    <clipPath
       clipPathUnits="userSpaceOnUse"
       id="clipPath41">
      <path
         d="M 0,0 H 842 V 596 H 0 Z"
         id="path41" />
    </clipPath>
    <clipPath
       clipPathUnits="userSpaceOnUse"
       id="clipPath43">
      <path
         d="M 0,0 H 842 V 596 H 0 Z"
         id="path43" />
    </clipPath>
    <clipPath
       clipPathUnits="userSpaceOnUse"
       id="clipPath45">
      <path
         d="M 0,0 H 842 V 596 H 0 Z"
         id="path45" />
    </clipPath>
    <clipPath
       clipPathUnits="userSpaceOnUse"
       id="clipPath47">
      <path
         d="M 0,0 H 842 V 596 H 0 Z"
         id="path47" />
    </clipPath>
    <clipPath
       clipPathUnits="userSpaceOnUse"
       id="clipPath49">
      <path
         d="M 0,0 H 842 V 596 H 0 Z"
         id="path49" />
    </clipPath>
    <clipPath
       clipPathUnits="userSpaceOnUse"
       id="clipPath51">
      <path
         d="M 0,0 H 842 V 596 H 0 Z"
         id="path51" />
    </clipPath>
    <clipPath
       clipPathUnits="userSpaceOnUse"
       id="clipPath53">
      <path
         d="M 0,0 H 842 V 596 H 0 Z"
         id="path53" />
    </clipPath>
    <clipPath
       clipPathUnits="userSpaceOnUse"
       id="clipPath55">
      <path
         d="M 0,0 H 842 V 596 H 0 Z"
         id="path55" />
    </clipPath>
    <clipPath
       clipPathUnits="userSpaceOnUse"
       id="clipPath57">
      <path
         d="M 0,0 H 842 V 596 H 0 Z"
         id="path57" />
    </clipPath>
    <clipPath
       clipPathUnits="userSpaceOnUse"
       id="clipPath59">
      <path
         d="M 0,0 H 842 V 596 H 0 Z"
         id="path59" />
    </clipPath>
    <clipPath
       clipPathUnits="userSpaceOnUse"
       id="clipPath61">
      <path
         d="M 0,0 H 842 V 596 H 0 Z"
         id="path61" />
    </clipPath>
    <clipPath
       clipPathUnits="userSpaceOnUse"
       id="clipPath63">
      <path
         d="M 0,0 H 842 V 596 H 0 Z"
         id="path63" />
    </clipPath>
    <clipPath
       clipPathUnits="userSpaceOnUse"
       id="clipPath3-2">
      <path
         d="M 0,595.276 H 841.89 V 0 H 0 Z"
         transform="translate(-124.22901,-148.382)"
         id="path3-4" />
    </clipPath>
    <clipPath
       clipPathUnits="userSpaceOnUse"
       id="clipPath5-5">
      <path
         d="M 0,595.276 H 841.89 V 0 H 0 Z"
         transform="translate(-170.1196,-148.382)"
         id="path5-5" />
    </clipPath>
    <clipPath
       clipPathUnits="userSpaceOnUse"
       id="clipPath7-1">
      <path
         d="M 0,595.276 H 841.89 V 0 H 0 Z"
         transform="translate(-196.30911,-149.60761)"
         id="path7-7" />
    </clipPath>
    <clipPath
       clipPathUnits="userSpaceOnUse"
       id="clipPath9-1">
      <path
         d="M 0,595.276 H 841.89 V 0 H 0 Z"
         transform="translate(-224.87301,-149.60761)"
         id="path9-1" />
    </clipPath>
    <clipPath
       clipPathUnits="userSpaceOnUse"
       id="clipPath11-5">
      <path
         d="M 0,595.276 H 841.89 V 0 H 0 Z"
         transform="translate(-249.02251,-155.5324)"
         id="path11-2" />
    </clipPath>
    <clipPath
       clipPathUnits="userSpaceOnUse"
       id="clipPath13-7">
      <path
         d="M 0,595.276 H 841.89 V 0 H 0 Z"
         transform="translate(-285.38181,-155.5324)"
         id="path13-6" />
    </clipPath>
    <clipPath
       clipPathUnits="userSpaceOnUse"
       id="clipPath15-1">
      <path
         d="M 0,595.276 H 841.89 V 0 H 0 Z"
         transform="translate(-315.10841,-148.382)"
         id="path15-4" />
    </clipPath>
    <clipPath
       clipPathUnits="userSpaceOnUse"
       id="clipPath17-2">
      <path
         d="M 0,595.276 H 841.89 V 0 H 0 Z"
         transform="translate(-341.30031,-149.60761)"
         id="path17-3" />
    </clipPath>
    <clipPath
       clipPathUnits="userSpaceOnUse"
       id="clipPath19-2">
      <path
         d="M 0,595.276 H 841.89 V 0 H 0 Z"
         transform="translate(-374.27931,-145.04221)"
         id="path19-2" />
    </clipPath>
    <clipPath
       clipPathUnits="userSpaceOnUse"
       id="clipPath21-1">
      <path
         d="M 0,595.276 H 841.89 V 0 H 0 Z"
         transform="translate(-420.40671,-141.23161)"
         id="path21-6" />
    </clipPath>
    <clipPath
       clipPathUnits="userSpaceOnUse"
       id="clipPath23-8">
      <path
         d="M 0,595.276 H 841.89 V 0 H 0 Z"
         transform="translate(-449.07521,-155.5324)"
         id="path23-5" />
    </clipPath>
    <clipPath
       clipPathUnits="userSpaceOnUse"
       id="clipPath25-7">
      <path
         d="M 0,595.276 H 841.89 V 0 H 0 Z"
         transform="translate(-491.79301,-142.1437)"
         id="path25-6" />
    </clipPath>
    <clipPath
       clipPathUnits="userSpaceOnUse"
       id="clipPath27-1">
      <path
         d="M 0,595.276 H 841.89 V 0 H 0 Z"
         transform="translate(-524.97851,-155.5324)"
         id="path27-8" />
    </clipPath>
    <clipPath
       clipPathUnits="userSpaceOnUse"
       id="clipPath29-9">
      <path
         d="M 0,595.276 H 841.89 V 0 H 0 Z"
         transform="translate(-551.65531,-148.2775)"
         id="path29-2" />
    </clipPath>
    <clipPath
       clipPathUnits="userSpaceOnUse"
       id="clipPath31-7">
      <path
         d="M 0,595.276 H 841.89 V 0 H 0 Z"
         transform="translate(-581.20411,-144.9631)"
         id="path31-9" />
    </clipPath>
    <clipPath
       clipPathUnits="userSpaceOnUse"
       id="clipPath33-5">
      <path
         d="M 0,595.276 H 841.89 V 0 H 0 Z"
         transform="translate(-620.45902,-149.60761)"
         id="path33-4" />
    </clipPath>
    <clipPath
       clipPathUnits="userSpaceOnUse"
       id="clipPath35-3">
      <path
         d="M 0,595.276 H 841.89 V 0 H 0 Z"
         transform="translate(-657.02542,-148.382)"
         id="path35-1" />
    </clipPath>
    <clipPath
       clipPathUnits="userSpaceOnUse"
       id="clipPath37-2">
      <path
         d="M 0,595.276 H 841.89 V 0 H 0 Z"
         transform="translate(-674.98142,-142.1437)"
         id="path37-3" />
    </clipPath>
    <clipPath
       clipPathUnits="userSpaceOnUse"
       id="clipPath39-3">
      <path
         d="M 0,595.276 H 841.89 V 0 H 0 Z"
         transform="translate(-421.95361,-256.66621)"
         id="path39-4" />
    </clipPath>
    <clipPath
       clipPathUnits="userSpaceOnUse"
       id="clipPath41-1">
      <path
         d="M 0,595.276 H 841.89 V 0 H 0 Z"
         transform="translate(-527.40331,-433.35031)"
         id="path41-1" />
    </clipPath>
    <clipPath
       clipPathUnits="userSpaceOnUse"
       id="clipPath43-3">
      <path
         d="M 0,595.276 H 841.89 V 0 H 0 Z"
         transform="translate(-418.23341,-452.44991)"
         id="path43-8" />
    </clipPath>
    <clipPath
       clipPathUnits="userSpaceOnUse"
       id="clipPath45-7">
      <path
         d="M 0,595.276 H 841.89 V 0 H 0 Z"
         transform="translate(-674.93552,-263.6174)"
         id="path45-4" />
    </clipPath>
    <clipPath
       clipPathUnits="userSpaceOnUse"
       id="clipPath47-2">
      <path
         d="M 0,595.276 H 841.89 V 0 H 0 Z"
         transform="translate(-108.9141,-170.01481)"
         id="path47-7" />
    </clipPath>
    <clipPath
       clipPathUnits="userSpaceOnUse"
       id="clipPath49-7">
      <path
         d="M 0,595.276 H 841.89 V 0 H 0 Z"
         transform="translate(-163.32861,-168.23851)"
         id="path49-9" />
    </clipPath>
    <clipPath
       clipPathUnits="userSpaceOnUse"
       id="clipPath51-3">
      <path
         d="M 0,595.276 H 841.89 V 0 H 0 Z"
         transform="translate(-242.45901,-201.4514)"
         id="path51-1" />
    </clipPath>
    <clipPath
       clipPathUnits="userSpaceOnUse"
       id="clipPath53-9">
      <path
         d="M 0,595.276 H 841.89 V 0 H 0 Z"
         transform="translate(-309.30421,-229.76681)"
         id="path53-8" />
    </clipPath>
    <clipPath
       clipPathUnits="userSpaceOnUse"
       id="clipPath55-6">
      <path
         d="M 0,595.276 H 841.89 V 0 H 0 Z"
         transform="translate(-380.80421,-201.69061)"
         id="path55-5" />
    </clipPath>
    <clipPath
       clipPathUnits="userSpaceOnUse"
       id="clipPath57-0">
      <path
         d="M 0,595.276 H 841.89 V 0 H 0 Z"
         transform="translate(-481.58111,-193.5793)"
         id="path57-2" />
    </clipPath>
    <clipPath
       clipPathUnits="userSpaceOnUse"
       id="clipPath59-8">
      <path
         d="M 0,595.276 H 841.89 V 0 H 0 Z"
         transform="translate(-566.71091,-233.31851)"
         id="path59-6" />
    </clipPath>
    <clipPath
       clipPathUnits="userSpaceOnUse"
       id="clipPath61-0">
      <path
         d="M 0,595.276 H 841.89 V 0 H 0 Z"
         transform="translate(-601.87991,-201.69061)"
         id="path61-2" />
    </clipPath>
    <clipPath
       clipPathUnits="userSpaceOnUse"
       id="clipPath63-4">
      <path
         d="M 0,595.276 H 841.89 V 0 H 0 Z"
         transform="translate(-689.36042,-170.01481)"
         id="path63-8" />
    </clipPath>
    <clipPath
       clipPathUnits="userSpaceOnUse"
       id="clipPath65">
      <path
         d="M 0,595.276 H 841.89 V 0 H 0 Z"
         transform="translate(-760.09179,-233.31851)"
         id="path65" />
    </clipPath>
    <clipPath
       clipPathUnits="userSpaceOnUse"
       id="clipPath3-2-0">
      <path
         d="M 0,595.276 H 841.89 V 0 H 0 Z"
         transform="translate(-124.22901,-148.382)"
         id="path3-4-7" />
    </clipPath>
    <clipPath
       clipPathUnits="userSpaceOnUse"
       id="clipPath5-5-6">
      <path
         d="M 0,595.276 H 841.89 V 0 H 0 Z"
         transform="translate(-170.1196,-148.382)"
         id="path5-5-3" />
    </clipPath>
    <clipPath
       clipPathUnits="userSpaceOnUse"
       id="clipPath7-1-6">
      <path
         d="M 0,595.276 H 841.89 V 0 H 0 Z"
         transform="translate(-196.30911,-149.60761)"
         id="path7-7-1" />
    </clipPath>
    <clipPath
       clipPathUnits="userSpaceOnUse"
       id="clipPath9-1-5">
      <path
         d="M 0,595.276 H 841.89 V 0 H 0 Z"
         transform="translate(-224.87301,-149.60761)"
         id="path9-1-4" />
    </clipPath>
    <clipPath
       clipPathUnits="userSpaceOnUse"
       id="clipPath11-5-2">
      <path
         d="M 0,595.276 H 841.89 V 0 H 0 Z"
         transform="translate(-249.02251,-155.5324)"
         id="path11-2-0" />
    </clipPath>
    <clipPath
       clipPathUnits="userSpaceOnUse"
       id="clipPath13-7-9">
      <path
         d="M 0,595.276 H 841.89 V 0 H 0 Z"
         transform="translate(-285.38181,-155.5324)"
         id="path13-6-7" />
    </clipPath>
    <clipPath
       clipPathUnits="userSpaceOnUse"
       id="clipPath15-1-3">
      <path
         d="M 0,595.276 H 841.89 V 0 H 0 Z"
         transform="translate(-315.10841,-148.382)"
         id="path15-4-7" />
    </clipPath>
    <clipPath
       clipPathUnits="userSpaceOnUse"
       id="clipPath17-2-2">
      <path
         d="M 0,595.276 H 841.89 V 0 H 0 Z"
         transform="translate(-341.30031,-149.60761)"
         id="path17-3-6" />
    </clipPath>
    <clipPath
       clipPathUnits="userSpaceOnUse"
       id="clipPath19-2-0">
      <path
         d="M 0,595.276 H 841.89 V 0 H 0 Z"
         transform="translate(-374.27931,-145.04221)"
         id="path19-2-1" />
    </clipPath>
    <clipPath
       clipPathUnits="userSpaceOnUse"
       id="clipPath21-1-6">
      <path
         d="M 0,595.276 H 841.89 V 0 H 0 Z"
         transform="translate(-420.40671,-141.23161)"
         id="path21-6-5" />
    </clipPath>
    <clipPath
       clipPathUnits="userSpaceOnUse"
       id="clipPath23-8-7">
      <path
         d="M 0,595.276 H 841.89 V 0 H 0 Z"
         transform="translate(-449.07521,-155.5324)"
         id="path23-5-5" />
    </clipPath>
    <clipPath
       clipPathUnits="userSpaceOnUse"
       id="clipPath25-7-4">
      <path
         d="M 0,595.276 H 841.89 V 0 H 0 Z"
         transform="translate(-491.79301,-142.1437)"
         id="path25-6-1" />
    </clipPath>
    <clipPath
       clipPathUnits="userSpaceOnUse"
       id="clipPath27-1-2">
      <path
         d="M 0,595.276 H 841.89 V 0 H 0 Z"
         transform="translate(-524.97851,-155.5324)"
         id="path27-8-0" />
    </clipPath>
    <clipPath
       clipPathUnits="userSpaceOnUse"
       id="clipPath29-9-0">
      <path
         d="M 0,595.276 H 841.89 V 0 H 0 Z"
         transform="translate(-551.65531,-148.2775)"
         id="path29-2-1" />
    </clipPath>
    <clipPath
       clipPathUnits="userSpaceOnUse"
       id="clipPath31-7-4">
      <path
         d="M 0,595.276 H 841.89 V 0 H 0 Z"
         transform="translate(-581.20411,-144.9631)"
         id="path31-9-6" />
    </clipPath>
    <clipPath
       clipPathUnits="userSpaceOnUse"
       id="clipPath33-5-0">
      <path
         d="M 0,595.276 H 841.89 V 0 H 0 Z"
         transform="translate(-620.45902,-149.60761)"
         id="path33-4-7" />
    </clipPath>
    <clipPath
       clipPathUnits="userSpaceOnUse"
       id="clipPath35-3-1">
      <path
         d="M 0,595.276 H 841.89 V 0 H 0 Z"
         transform="translate(-657.02542,-148.382)"
         id="path35-1-7" />
    </clipPath>
    <clipPath
       clipPathUnits="userSpaceOnUse"
       id="clipPath37-2-7">
      <path
         d="M 0,595.276 H 841.89 V 0 H 0 Z"
         transform="translate(-674.98142,-142.1437)"
         id="path37-3-7" />
    </clipPath>
  </defs>
  <sodipodi:namedview
     id="namedview1"
     pagecolor="#ffffff"
     bordercolor="#000000"
     borderopacity="0.25"
     inkscape:showpageshadow="2"
     inkscape:pageopacity="0.0"
     inkscape:pagecheckerboard="0"
     inkscape:deskcolor="#d1d1d1"
     inkscape:zoom="0.7376571"
     inkscape:cx="458.20748"
     inkscape:cy="473.79738"
     inkscape:window-width="1920"
     inkscape:window-height="1009"
     inkscape:window-x="1912"
     inkscape:window-y="-8"
     inkscape:window-maximized="1"
     inkscape:current-layer="g1"
     showgrid="false">
    <inkscape:page
       x="0"
       y="0"
       id="page1"
       width="1122.6667"
       height="794.66669"
       margin="0"
       bleed="0" />
  </sodipodi:namedview>
  <g
     id="g1"
     inkscape:groupmode="layer"
     inkscape:label="">
    <g
       id="g3"
       transform="matrix(2.1316816,0,0,2.1316816,-566.79057,-326.8154)">
      <g
         id="g67"
         transform="translate(7.8746876e-5,24.445351)">
        <g
           id="g38">
          <path
             d="m 422.008,339.023 c -31.184,0 -59.117,-7.941 -83.024,-23.597 -20.234,-13.254 -36.855,-31.738 -48.066,-53.449 -16.121,-31.215 -18.523,-65.52 -5.848,-83.422 4.301,-6.071 10.563,-9.754 18.618,-10.946 1.941,-0.289 4.019,-0.433 6.175,-0.433 39.567,0 102.02,48.246 104.66,50.297 l -0.211,0.281 c -0.656,-0.473 -66.019,-47.305 -104.261,-47.305 -2.067,0 -4.051,0.141 -5.887,0.41 -7.129,1.055 -12.652,4.286 -16.414,9.594 -11.996,16.945 -9.496,49.848 6.082,80.016 11.688,22.629 47.57,75.269 128.176,75.269 77.969,0 113.312,-50.867 124.887,-72.738 16.21,-30.625 19.464,-65.41 7.738,-82.707 -5.656,-8.336 -12.762,-13.023 -21.731,-14.328 -1.664,-0.242 -3.418,-0.363 -5.211,-0.363 -27.879,0 -66.964,28.886 -105.046,60.105 -20.356,16.688 -43.93,25.148 -70.071,25.148 -3.742,0 -7.543,-0.183 -11.293,-0.543 -22.738,-2.187 -38.246,-9.91 -38.894,-10.238 l 0.129,-0.324 c 0.172,0.051 17.324,5.219 39.191,7.301 3.605,0.344 7.258,0.519 10.855,0.519 25.372,0 48.25,-8.211 68.004,-24.402 44.571,-36.535 79.809,-60.871 106.907,-60.871 2.015,0 4.004,0.141 5.902,0.418 9.793,1.422 17.859,6.715 23.969,15.73 12.574,18.543 9.468,53.946 -7.547,86.094 -11.856,22.395 -48.035,74.484 -127.789,74.484"
             style="fill:#fbc707;fill-opacity:1;fill-rule:nonzero;stroke:none"
             transform="scale(1.3333333)"
             clip-path="url(#clipPath37)"
             id="path38" />
        </g>
        <g
           id="g2">
          <g
             id="g40">
            <path
               d="m 527.473,162.121 c -27.153,0 -62.418,24.352 -107.02,60.91 -19.719,16.164 -42.562,24.364 -67.891,24.364 -3.593,0 -7.242,-0.176 -10.839,-0.52 -21.844,-2.078 -38.985,-7.242 -39.157,-7.293 l -0.257,0.648 c 0.648,0.329 16.183,8.067 38.957,10.254 3.754,0.364 7.558,0.547 11.308,0.547 26.18,0 49.793,-8.472 70.18,-25.187 38.062,-31.199 77.117,-60.071 104.934,-60.067 1.789,0 3.535,0.121 5.187,0.364 8.918,1.297 15.988,5.957 21.609,14.25 11.696,17.25 8.438,51.957 -7.742,82.527 -11.562,21.84 -46.859,72.644 -124.734,72.644 -80.508,0 -116.348,-52.574 -128.02,-75.175 -15.547,-30.114 -18.054,-62.938 -6.093,-79.828 3.73,-5.274 9.214,-8.477 16.296,-9.524 1.829,-0.273 3.801,-0.41 5.86,-0.41 38.183,0.004 103.504,46.801 104.16,47.273 l 0.422,-0.562 C 411.988,215.281 349.492,167 309.863,167 c -2.164,0 -4.254,0.148 -6.203,0.438 -8.101,1.199 -14.406,4.906 -18.73,11.015 -12.715,17.957 -10.317,52.332 5.832,83.602 11.226,21.742 27.867,40.246 48.129,53.519 23.933,15.676 51.898,23.625 83.117,23.625 79.851,0 116.074,-52.156 127.941,-74.578 17.047,-32.203 20.149,-67.68 7.543,-86.273 -6.14,-9.059 -14.246,-14.375 -24.09,-15.809 -1.91,-0.277 -3.902,-0.418 -5.929,-0.418 m 0,0.352 c 2.007,0 3.965,0.136 5.879,0.414 9.742,1.418 17.765,6.687 23.851,15.66 12.535,18.488 9.426,53.816 -7.562,85.91 -11.84,22.367 -47.973,74.391 -127.633,74.391 -31.153,0 -59.051,-7.93 -82.926,-23.571 -20.211,-13.234 -36.809,-31.695 -48.008,-53.382 -16.09,-31.157 -18.5,-65.387 -5.859,-83.239 4.269,-6.031 10.492,-9.687 18.496,-10.871 1.977,-0.293 4.031,-0.433 6.152,-0.433 39.485,0 101.782,48.105 104.551,50.261 0,0 -65.625,-47.336 -104.363,-47.34 -2.051,0 -4.024,0.133 -5.91,0.415 -7.184,1.062 -12.746,4.316 -16.536,9.667 -12.031,16.993 -9.535,49.969 6.071,80.192 11.703,22.66 47.629,75.367 128.332,75.367 78.066,0 113.453,-50.934 125.043,-72.832 16.238,-30.68 19.488,-65.539 7.726,-82.887 -5.683,-8.383 -12.828,-13.09 -21.847,-14.402 -1.7,-0.25 -3.446,-0.367 -5.242,-0.367 -27.77,-0.004 -66.825,28.726 -105.157,60.148 -24.332,19.949 -49.972,25.106 -69.957,25.106 -4.004,0 -7.781,-0.207 -11.277,-0.543 -22.656,-2.18 -38.184,-9.891 -38.832,-10.219 0,0 17.086,5.203 39.223,7.309 3.371,0.32 7.015,0.519 10.874,0.519 19.446,0 44.415,-5.016 68.114,-24.441 44.437,-36.43 79.941,-60.832 106.797,-60.832"
               style="fill:#fbc707;fill-opacity:1;fill-rule:nonzero;stroke:none"
               transform="scale(1.3333333)"
               clip-path="url(#clipPath39)"
               id="path40" />
          </g>
          <g
             id="g42">
            <path
               d="m 418.289,143 c -12.676,0 -24.234,4.773 -32.988,12.617 9.109,-10.234 22.367,-16.683 37.137,-16.683 23.789,0 43.652,16.722 48.558,39.058 1.008,-0.64 2.008,-1.269 3,-1.887 -4.766,-25.238 -26.894,-44.332 -53.492,-44.332 -30.074,0 -54.453,24.407 -54.453,54.512 0,20.082 10.851,37.613 26.996,47.074 7.965,-3.629 16.035,-8.511 23.969,-15.011 17.906,-14.68 34.355,-27.395 49.382,-37.36 C 461.191,159.207 441.645,143 418.289,143"
               style="fill:#ffffff;fill-opacity:1;fill-rule:nonzero;stroke:none"
               transform="scale(1.3333333)"
               clip-path="url(#clipPath41)"
               id="path42" />
          </g>
        </g>
      </g>
    </g>
  </g>
</svg>
